<svg width="27" height="26" viewBox="0 0 27 26" fill="none" xmlns="http://www.w3.org/2000/svg">
<path d="M25.7291 20.0911C25.7531 20.9911 25.5131 21.843 25.0812 22.575C24.8412 23.007 24.5172 23.4031 24.1572 23.7271C23.3292 24.495 22.2373 24.963 21.0254 24.999C19.2734 25.035 17.7255 24.135 16.8735 22.7551C16.4176 22.0471 16.1416 21.1952 16.1296 20.2952C16.0936 18.7833 16.7656 17.4154 17.8455 16.5154C18.6615 15.8434 19.6934 15.4234 20.8214 15.3994C23.4732 15.3395 25.6691 17.4392 25.7291 20.0911Z" stroke="#C4F440" stroke-width="1.67" stroke-miterlimit="10" stroke-linecap="round" stroke-linejoin="round"/>
<path d="M19.0578 20.2354L20.2698 21.3873L22.7776 18.9634" stroke="#C4F440" stroke-width="1.67" stroke-linecap="round" stroke-linejoin="round"/>
<path d="M1.93512 7.52759L12.5306 13.6593L23.0541 7.56355" stroke="#C4F440" stroke-width="1.67" stroke-linecap="round" stroke-linejoin="round"/>
<path d="M12.5307 24.531V13.6475" stroke="#C4F440" stroke-width="1.67" stroke-linecap="round" stroke-linejoin="round"/>
<path d="M24.0629 9.6036V16.3953C24.0629 16.4553 24.0629 16.5033 24.0509 16.5633C23.2109 15.8313 22.131 15.3993 20.931 15.3993C19.8031 15.3993 18.7591 15.7953 17.9312 16.4553C16.8272 17.3312 16.1313 18.6872 16.1313 20.1991C16.1313 21.0991 16.3833 21.951 16.8272 22.671C16.9352 22.863 17.0672 23.043 17.2112 23.211L15.0153 24.4229C13.6474 25.1909 11.4155 25.1909 10.0476 24.4229L3.63986 20.8711C2.18793 20.0671 1 18.0512 1 16.3953V9.6036C1 7.94768 2.18793 5.93179 3.63986 5.12783L10.0476 1.57597C11.4155 0.808009 13.6474 0.808009 15.0153 1.57597L21.423 5.12783C22.875 5.93179 24.0629 7.94768 24.0629 9.6036Z" stroke="#C4F440" stroke-width="1.67" stroke-linecap="round" stroke-linejoin="round"/>
</svg>
