<svg width="24" height="22" viewBox="0 0 24 22" fill="none" xmlns="http://www.w3.org/2000/svg">
<path d="M19.6364 18.5453C20.2389 18.5453 20.7273 18.0569 20.7273 17.4544C20.7273 16.8519 20.2389 16.3635 19.6364 16.3635C19.0339 16.3635 18.5455 16.8519 18.5455 17.4544C18.5455 18.0569 19.0339 18.5453 19.6364 18.5453Z" fill="#C4F440"/>
<path d="M16.3636 18.5453C16.9661 18.5453 17.4545 18.0569 17.4545 17.4544C17.4545 16.8519 16.9661 16.3635 16.3636 16.3635C15.7611 16.3635 15.2727 16.8519 15.2727 17.4544C15.2727 18.0569 15.7611 18.5453 16.3636 18.5453Z" fill="#C4F440"/>
<path d="M19.6364 11.9999C20.2389 11.9999 20.7273 11.5115 20.7273 10.909C20.7273 10.3065 20.2389 9.81812 19.6364 9.81812C19.0339 9.81812 18.5455 10.3065 18.5455 10.909C18.5455 11.5115 19.0339 11.9999 19.6364 11.9999Z" fill="#C4F440"/>
<path d="M16.3636 11.9999C16.9661 11.9999 17.4545 11.5115 17.4545 10.909C17.4545 10.3065 16.9661 9.81812 16.3636 9.81812C15.7611 9.81812 15.2727 10.3065 15.2727 10.909C15.2727 11.5115 15.7611 11.9999 16.3636 11.9999Z" fill="#C4F440"/>
<path d="M22.9091 0H1.09091C0.801582 0 0.524105 0.114935 0.31952 0.31952C0.114935 0.524105 0 0.801582 0 1.09091V7.63636C0 7.92569 0.114935 8.20317 0.31952 8.40775C0.524105 8.61234 0.801582 8.72727 1.09091 8.72727H21.8182V13.0909H14.1818C13.8925 13.0909 13.615 13.2058 13.4104 13.4104C13.2058 13.615 13.0909 13.8925 13.0909 14.1818C13.0909 14.4711 13.2058 14.7486 13.4104 14.9532C13.615 15.1578 13.8925 15.2727 14.1818 15.2727H21.8182V19.6364H14.1818C13.8925 19.6364 13.615 19.7513 13.4104 19.9559C13.2058 20.1605 13.0909 20.4379 13.0909 20.7273C13.0909 21.0166 13.2058 21.2941 13.4104 21.4987C13.615 21.7032 13.8925 21.8182 14.1818 21.8182H22.9091C23.1984 21.8182 23.4759 21.7032 23.6805 21.4987C23.8851 21.2941 24 21.0166 24 20.7273V1.09091C24 0.801582 23.8851 0.524105 23.6805 0.31952C23.4759 0.114935 23.1984 0 22.9091 0ZM2.18182 6.54545V2.18182H21.8182V6.54545H2.18182Z" fill="#C4F440"/>
<path d="M19.6364 5.45452C20.2389 5.45452 20.7273 4.96611 20.7273 4.36361C20.7273 3.76112 20.2389 3.27271 19.6364 3.27271C19.0339 3.27271 18.5455 3.76112 18.5455 4.36361C18.5455 4.96611 19.0339 5.45452 19.6364 5.45452Z" fill="#C4F440"/>
<path d="M16.3636 5.45452C16.9661 5.45452 17.4545 4.96611 17.4545 4.36361C17.4545 3.76112 16.9661 3.27271 16.3636 3.27271C15.7611 3.27271 15.2727 3.76112 15.2727 4.36361C15.2727 4.96611 15.7611 5.45452 16.3636 5.45452Z" fill="#C4F440"/>
<path d="M9.6 12.3273L3.81818 18.1091L2.4 16.6909C2.29504 16.5724 2.1643 16.4794 2.01783 16.4192C1.87136 16.3591 1.71304 16.3333 1.55503 16.3438C1.39703 16.3543 1.24354 16.4009 1.10635 16.48C0.969163 16.5591 0.851923 16.6686 0.763634 16.8C0.605169 17.0189 0.529204 17.2868 0.549167 17.5563C0.56913 17.8258 0.683736 18.0796 0.872725 18.2728L3.05454 20.4C3.15162 20.5059 3.26964 20.5903 3.40109 20.6481C3.53255 20.7059 3.67458 20.7358 3.81818 20.7358C3.96178 20.7358 4.10381 20.7059 4.23527 20.6481C4.36672 20.5903 4.48473 20.5059 4.58181 20.4L11.1273 13.8546C11.2848 13.6445 11.3613 13.3846 11.3427 13.1227C11.3241 12.8608 11.2116 12.6143 11.0259 12.4287C10.8402 12.243 10.5938 12.1305 10.3319 12.1119C10.0699 12.0933 9.81008 12.1698 9.6 12.3273Z" fill="#C4F440"/>
</svg>
