<svg width="21" height="25" viewBox="0 0 21 25" fill="none" xmlns="http://www.w3.org/2000/svg">
<path d="M17.3152 5.21745V6.09789H18.1957V5.21745H17.3152ZM2.13778 6.09789H17.3152V4.33702H2.13778V6.09789ZM18.1957 5.21745V3.22887H16.4348V5.21745H18.1957ZM14.5109 0.0330522L1.83545 1.84383L2.08447 3.58699L14.7599 1.77622L14.5109 0.0330522ZM1.83545 1.84383C0.782273 1.99427 0 2.89625 0 3.96011H1.76087C1.76087 3.77254 1.89879 3.61352 2.08447 3.58699L1.83545 1.84383ZM18.1957 3.22887C18.1957 1.26431 16.4557 -0.244778 14.5109 0.0330522L14.7599 1.77622C15.6439 1.64994 16.4348 2.33588 16.4348 3.22887H18.1957ZM2.13778 4.33702C1.92962 4.33702 1.76087 4.16827 1.76087 3.96011H0C0 5.14077 0.957116 6.09789 2.13778 6.09789V4.33702Z" fill="#C4F440"/>
<path d="M5.57609 12.2607H14.9674" stroke="#C4F440" stroke-width="1.67" stroke-linecap="round"/>
<path d="M5.57609 16.3694H12.0326" stroke="#C4F440" stroke-width="1.67" stroke-linecap="round"/>
<path d="M0.88044 5.21737V20.4782C0.88044 22.4233 2.45718 24 4.40218 24H16.1413C18.0864 24 19.6631 22.4233 19.6631 20.4782V14.6087M0.88044 5.21737V4.04346M0.88044 5.21737H16.1413C18.0864 5.21737 19.6631 6.79411 19.6631 8.73911V9.91303" stroke="#C4F440" stroke-width="1.67" stroke-linecap="round"/>
</svg>
