<svg width="16" height="12" viewBox="0 0 16 12" fill="none" xmlns="http://www.w3.org/2000/svg">
<path d="M1.14286 0H6.85714C7.16025 0 7.45094 0.120408 7.66527 0.334735C7.87959 0.549062 8 0.839753 8 1.14286C8 1.44596 7.87959 1.73665 7.66527 1.95098C7.45094 2.16531 7.16025 2.28571 6.85714 2.28571H1.14286C0.839753 2.28571 0.549062 2.16531 0.334735 1.95098C0.120408 1.73665 0 1.44596 0 1.14286C0 0.839753 0.120408 0.549062 0.334735 0.334735C0.549062 0.120408 0.839753 0 1.14286 0ZM9.14286 9.14286H14.8571C15.1602 9.14286 15.4509 9.26327 15.6653 9.47759C15.8796 9.69192 16 9.98261 16 10.2857C16 10.5888 15.8796 10.8795 15.6653 11.0938C15.4509 11.3082 15.1602 11.4286 14.8571 11.4286H9.14286C8.83975 11.4286 8.54906 11.3082 8.33474 11.0938C8.12041 10.8795 8 10.5888 8 10.2857C8 9.98261 8.12041 9.69192 8.33474 9.47759C8.54906 9.26327 8.83975 9.14286 9.14286 9.14286ZM1.14286 4.57143H14.8571C15.1602 4.57143 15.4509 4.69184 15.6653 4.90616C15.8796 5.12049 16 5.41118 16 5.71429C16 6.01739 15.8796 6.30808 15.6653 6.52241C15.4509 6.73674 15.1602 6.85714 14.8571 6.85714H1.14286C0.839753 6.85714 0.549062 6.73674 0.334735 6.52241C0.120408 6.30808 0 6.01739 0 5.71429C0 5.41118 0.120408 5.12049 0.334735 4.90616C0.549062 4.69184 0.839753 4.57143 1.14286 4.57143Z" fill="#141416"/>
</svg>
