<svg width="27" height="20" viewBox="0 0 27 20" fill="none" xmlns="http://www.w3.org/2000/svg">
<path d="M21.4286 10.0001H17.4286M25.4286 4.66675H1.42857M21.4286 15.3334H17.4286M14.7619 19.3334C14.2576 17.0511 12.0615 15.3334 9.42857 15.3334C6.8054 15.3334 4.61569 17.0385 4.10089 19.3082M4.10089 19.3082C4.51892 19.3334 5.03385 19.3334 5.69524 19.3334H21.1619C22.6554 19.3334 23.4022 19.3334 23.9726 19.0427C24.4743 18.7871 24.8823 18.3791 25.1379 17.8774C25.4286 17.307 25.4286 16.5602 25.4286 15.0667V4.93341C25.4286 3.43995 25.4286 2.6932 25.1379 2.12277C24.8823 1.621 24.4743 1.21305 23.9726 0.957401C23.4022 0.666748 22.6554 0.666748 21.1619 0.666748H5.69524C4.20177 0.666748 3.45503 0.666748 2.8846 0.957401C2.38283 1.21305 1.97488 1.621 1.71923 2.12277C1.42857 2.6932 1.42857 3.43993 1.42857 4.93341V15.0667C1.42857 16.5602 1.42857 17.307 1.71923 17.8774C1.97488 18.3791 2.38283 18.7871 2.8846 19.0427C3.20241 19.2047 3.57496 19.2763 4.10089 19.3082ZM9.42857 10.0001H9.44191M10.7619 10.0001C10.7619 10.7365 10.1649 11.3334 9.42857 11.3334C8.6922 11.3334 8.09524 10.7365 8.09524 10.0001C8.09524 9.26368 8.6922 8.66675 9.42857 8.66675C10.1649 8.66675 10.7619 9.26368 10.7619 10.0001Z" stroke="#C4F440" stroke-width="1.29889" stroke-linecap="round" stroke-linejoin="round"/>
</svg>
