<svg width="55" height="55" viewBox="0 0 55 55" fill="none" xmlns="http://www.w3.org/2000/svg">
<path d="M53.2812 37.4589H18.7419C18.5425 37.4589 18.3512 37.3796 18.2102 37.2386C18.0692 37.0976 17.9899 36.9063 17.9899 36.7069V19.4372C17.9899 19.309 18.0227 19.1829 18.0852 19.0709C18.1476 18.959 18.2377 18.8648 18.3468 18.7974L33.9303 9.17394C33.8577 8.95415 33.8207 8.72422 33.8205 8.49277C33.8205 8.30806 33.8886 8.12982 34.0117 7.99209C34.1348 7.85435 34.3042 7.76675 34.4878 7.746C34.6713 7.72526 34.8561 7.77281 35.0068 7.8796C35.1575 7.98639 35.2637 8.14494 35.3049 8.32498L35.6165 8.13259C35.7352 8.05932 35.872 8.02051 36.0115 8.02051C36.151 8.02051 36.2878 8.05932 36.4066 8.13259L36.6694 8.2949C36.5842 8.01217 36.3217 7.80549 36.0115 7.80549C35.812 7.80549 35.6208 7.72626 35.4798 7.58525C35.3387 7.44423 35.2595 7.25297 35.2595 7.05354V5.89338C34.4601 5.58895 33.8897 4.81669 33.8897 3.91177C33.8897 3.00685 34.4602 2.23448 35.2595 1.93005V1.71875C35.2595 1.51932 35.3387 1.32806 35.4798 1.18704C35.6208 1.04602 35.812 0.966797 36.0115 0.966797C36.2109 0.966797 36.4022 1.04602 36.5432 1.18704C36.6842 1.32806 36.7634 1.51932 36.7634 1.71875V1.93005C37.5628 2.23448 38.1334 3.00685 38.1334 3.91177C38.1334 4.81669 37.5628 5.58895 36.7634 5.89338V6.43457C37.6023 6.74201 38.2025 7.54864 38.2025 8.49277C38.2025 8.73071 38.1632 8.95931 38.0928 9.17394L53.6763 18.7974C53.7854 18.8648 53.8755 18.959 53.938 19.0709C54.0004 19.1829 54.0332 19.309 54.0332 19.4372V36.7069C54.0332 36.9063 53.954 37.0976 53.813 37.2386C53.6719 37.3796 53.4807 37.4589 53.2812 37.4589ZM36.0116 4.52966C36.3523 4.52966 36.6296 4.25251 36.6296 3.91177C36.6296 3.57103 36.3523 3.29377 36.0116 3.29377C35.6708 3.29377 35.3937 3.57103 35.3937 3.91177C35.3937 4.25251 35.6708 4.52966 36.0116 4.52966ZM52.5293 35.955V20.1892H19.4938V35.955H52.5293ZM36.0116 10.684C35.5936 10.684 35.2041 10.5642 34.8714 10.3603L21.3907 18.6853H50.6325L37.1519 10.3603C36.8191 10.5642 36.4294 10.684 36.0116 10.684ZM35.2597 23.3761V32.9142C35.2597 33.1136 35.3389 33.3049 35.48 33.4459C35.621 33.5869 35.8122 33.6661 36.0117 33.6661C36.2111 33.6661 36.4024 33.5869 36.5434 33.4459C36.6844 33.3049 36.7636 33.1136 36.7636 32.9142V23.3761C36.7636 23.1766 36.6844 22.9854 36.5434 22.8444C36.4024 22.7033 36.2111 22.6241 36.0117 22.6241C35.8122 22.6241 35.621 22.7033 35.48 22.8444C35.3389 22.9854 35.2597 23.1766 35.2597 23.3761ZM30.8175 23.3761V32.9142C30.8175 33.1136 30.8967 33.3049 31.0378 33.4459C31.1788 33.5869 31.37 33.6661 31.5695 33.6661C31.7689 33.6661 31.9602 33.5869 32.1012 33.4459C32.2422 33.3049 32.3214 33.1136 32.3214 32.9142V23.3761C32.3214 23.1766 32.2422 22.9854 32.1012 22.8444C31.9602 22.7033 31.7689 22.6241 31.5695 22.6241C31.37 22.6241 31.1788 22.7033 31.0378 22.8444C30.8967 22.9854 30.8175 23.1766 30.8175 23.3761ZM48.5863 23.23V32.7681C48.5863 32.9675 48.6655 33.1588 48.8065 33.2998C48.9475 33.4408 49.1388 33.52 49.3382 33.52C49.5377 33.52 49.7289 33.4408 49.8699 33.2998C50.011 33.1588 50.0902 32.9675 50.0902 32.7681V23.23C50.0902 23.0306 50.011 22.8393 49.8699 22.6983C49.7289 22.5573 49.5377 22.478 49.3382 22.478C49.1388 22.478 48.9475 22.5573 48.8065 22.6983C48.6655 22.8393 48.5863 23.0306 48.5863 23.23ZM26.3753 23.3761V32.9142C26.3753 33.1136 26.4545 33.3049 26.5955 33.4459C26.7366 33.5869 26.9278 33.6661 27.1272 33.6661C27.3267 33.6661 27.5179 33.5869 27.659 33.4459C27.8 33.3049 27.8792 33.1136 27.8792 32.9142V23.3761C27.8792 23.1766 27.8 22.9854 27.659 22.8444C27.5179 22.7033 27.3267 22.6241 27.1272 22.6241C26.9278 22.6241 26.7366 22.7033 26.5955 22.8444C26.4545 22.9854 26.3753 23.1766 26.3753 23.3761ZM44.1441 23.23V32.7681C44.1441 32.9675 44.2233 33.1588 44.3643 33.2998C44.5053 33.4408 44.6966 33.52 44.896 33.52C45.0954 33.52 45.2867 33.4408 45.4277 33.2998C45.5687 33.1588 45.648 32.9675 45.648 32.7681V23.23C45.648 23.0306 45.5687 22.8393 45.4277 22.6983C45.2867 22.5573 45.0954 22.478 44.896 22.478C44.6966 22.478 44.5053 22.5573 44.3643 22.6983C44.2233 22.8393 44.1441 23.0306 44.1441 23.23ZM39.7018 23.3761V32.9142C39.7018 33.1136 39.7811 33.3049 39.9221 33.4459C40.0631 33.5869 40.2544 33.6661 40.4538 33.6661C40.6532 33.6661 40.8445 33.5869 40.9855 33.4459C41.1265 33.3049 41.2057 33.1136 41.2057 32.9142V23.3761C41.2057 23.1766 41.1265 22.9854 40.9855 22.8444C40.8445 22.7033 40.6532 22.6241 40.4538 22.6241C40.2544 22.6241 40.0631 22.7033 39.9221 22.8444C39.7811 22.9854 39.7018 23.1766 39.7018 23.3761ZM21.9331 23.3761V32.9142C21.9331 33.1136 22.0123 33.3049 22.1533 33.4459C22.2943 33.5869 22.4856 33.6661 22.685 33.6661C22.8845 33.6661 23.0757 33.5869 23.2167 33.4459C23.3578 33.3049 23.437 33.1136 23.437 32.9142V23.3761C23.437 23.1766 23.3578 22.9854 23.2167 22.8444C23.0757 22.7033 22.8845 22.6241 22.685 22.6241C22.4856 22.6241 22.2943 22.7033 22.1533 22.8444C22.0123 22.9854 21.9331 23.1766 21.9331 23.3761ZM1.3142 41.0371L4.25519 36.4952C4.66157 35.8678 5.32318 35.5081 6.07062 35.5081H13.408C13.6074 35.5081 13.7987 35.5873 13.9397 35.7283C14.0807 35.8693 14.1599 36.0606 14.1599 36.26V46.1782H17.9899V44.1491C17.9899 43.9497 18.0692 43.7584 18.2102 43.6174C18.3512 43.4764 18.5425 43.3971 18.7419 43.3971H53.2812C53.4807 43.3971 53.6719 43.4764 53.813 43.6174C53.954 43.7584 54.0332 43.9497 54.0332 44.1491V46.9301C54.0332 47.1296 53.954 47.3208 53.813 47.4619C53.6719 47.6029 53.4807 47.6821 53.2812 47.6821H51.1254C51.651 48.3502 51.9658 49.1916 51.9658 50.1058C51.9658 52.2714 50.2038 54.0333 48.0382 54.0333C45.8726 54.0333 44.1108 52.2715 44.1108 50.1058C44.1108 49.1917 44.4255 48.3503 44.9511 47.6821H42.9292C43.4548 48.3502 43.7696 49.1916 43.7696 50.1058C43.7696 52.2714 42.0078 54.0333 39.842 54.0333C37.6763 54.0333 35.9145 52.2715 35.9145 50.1058C35.9145 49.1917 36.2292 48.3503 36.7548 47.6821H24.0799C24.6055 48.3502 24.9203 49.1916 24.9203 50.1058C24.9203 52.2714 23.1584 54.0333 20.9927 54.0333C19.5746 54.0333 18.3299 53.2778 17.6394 52.1483H11.8588C11.1685 53.2776 9.92374 54.0332 8.50577 54.0332C7.0878 54.0332 5.84299 53.2777 5.15248 52.1482H2.81359C1.79534 52.1482 0.9669 51.3197 0.9669 50.3016V42.2128C0.966793 41.7826 1.08055 41.3978 1.3142 41.0371ZM52.5293 44.9011H19.4938V46.1782H52.5293V44.9011ZM45.6147 50.1056C45.6147 51.442 46.7019 52.5293 48.0382 52.5293C49.3746 52.5293 50.4619 51.4421 50.4619 50.1056C50.4619 48.7692 49.3746 47.682 48.0382 47.682C46.7019 47.682 45.6147 48.7693 45.6147 50.1056ZM37.4186 50.1056C37.4186 51.442 38.5058 52.5293 39.8422 52.5293C41.1787 52.5293 42.2659 51.4421 42.2659 50.1056C42.2659 48.7692 41.1787 47.682 39.8422 47.682C38.5058 47.682 37.4186 48.7693 37.4186 50.1056ZM20.993 52.5293C22.3294 52.5293 23.4167 51.4421 23.4167 50.1056C23.4167 48.7692 22.3295 47.682 20.993 47.682C19.6566 47.682 18.5694 48.7692 18.5694 50.1056C18.5694 51.4421 19.6566 52.5293 20.993 52.5293ZM17.9059 47.682H14.16V50.6441H17.1034C17.0785 50.4657 17.0658 50.2857 17.0656 50.1055C17.0655 49.1916 17.3802 48.3502 17.9059 47.682ZM12.4332 50.1056C12.4332 50.2884 12.4197 50.468 12.3954 50.6443H12.6561V37.0119H6.07073C5.8329 37.0119 5.64684 37.1131 5.51762 37.3127L2.57662 41.8547C2.50045 41.9722 2.47081 42.0725 2.47081 42.2127V45.2572H2.89136C3.09079 45.2572 3.28206 45.3364 3.42308 45.4774C3.56409 45.6184 3.64331 45.8097 3.64331 46.0091C3.64331 46.2085 3.56409 46.3998 3.42308 46.5408C3.28206 46.6818 3.09079 46.7611 2.89136 46.7611H2.4707V48.0632H5.15238C5.84289 46.9337 7.08769 46.1781 8.50577 46.1781C10.6714 46.1781 12.4332 47.94 12.4332 50.1056ZM8.50577 52.5293C9.8421 52.5293 10.9294 51.4421 10.9294 50.1056C10.9294 48.7692 9.84221 47.682 8.50577 47.682C7.16933 47.682 6.08212 48.7692 6.08212 50.1056C6.08212 51.4421 7.16933 52.5293 8.50577 52.5293ZM2.81348 50.6443H4.61602C4.59112 50.4658 4.57848 50.2858 4.57821 50.1056C4.57821 49.9229 4.59175 49.7433 4.61602 49.5671H2.4707V50.3015C2.47081 50.3923 2.50697 50.4795 2.57122 50.5437C2.63548 50.608 2.72261 50.6441 2.81348 50.6443ZM4.09556 41.7977C4.03096 41.6789 3.99958 41.5449 4.00474 41.4098C4.0099 41.2747 4.05141 41.1434 4.12489 41.0299L6.02368 38.0976C6.0919 37.9923 6.18539 37.9057 6.29564 37.8457C6.40589 37.7858 6.52939 37.7544 6.65489 37.7544H10.352C10.5515 37.7544 10.7427 37.8336 10.8837 37.9746C11.0248 38.1156 11.104 38.3069 11.104 38.5063V41.4386C11.104 41.6381 11.0248 41.8293 10.8837 41.9703C10.7427 42.1114 10.5515 42.1906 10.352 42.1906H4.7561C4.62085 42.1905 4.48812 42.154 4.37187 42.0849C4.25563 42.0158 4.16018 41.9166 4.09556 41.7977ZM9.60007 40.6866V39.2582H7.06384L6.13894 40.6866H9.60007ZM40.6724 50.1056C40.6724 49.6471 40.3007 49.2754 39.8421 49.2754C39.3835 49.2754 39.0119 49.6471 39.0119 50.1056C39.0154 50.3235 39.1044 50.5313 39.2597 50.6842C39.415 50.837 39.6242 50.9227 39.8421 50.9227C40.06 50.9227 40.2692 50.837 40.4245 50.6842C40.5799 50.5313 40.6689 50.3235 40.6724 50.1056ZM48.8686 50.1056C48.8703 49.9955 48.8502 49.8861 48.8093 49.7838C48.7683 49.6815 48.7074 49.5884 48.6302 49.5099C48.5529 49.4313 48.4608 49.369 48.3592 49.3264C48.2575 49.2838 48.1485 49.2619 48.0383 49.2619C47.9281 49.2619 47.8191 49.2838 47.7175 49.3264C47.6158 49.369 47.5237 49.4313 47.4464 49.5099C47.3692 49.5884 47.3083 49.6815 47.2674 49.7838C47.2264 49.8861 47.2063 49.9955 47.208 50.1056C47.2116 50.3235 47.3006 50.5313 47.4559 50.6842C47.6112 50.837 47.8204 50.9227 48.0383 50.9227C48.2562 50.9227 48.4654 50.837 48.6207 50.6842C48.7761 50.5313 48.8651 50.3235 48.8686 50.1056ZM20.1628 50.1056C20.1628 50.3259 20.2503 50.5371 20.406 50.6928C20.5618 50.8485 20.773 50.9359 20.9932 50.9359C21.2135 50.9359 21.4247 50.8484 21.5804 50.6926C21.7361 50.5369 21.8235 50.3257 21.8235 50.1054C21.8235 49.8852 21.736 49.674 21.5802 49.5183C21.5031 49.4412 21.4116 49.38 21.3108 49.3383C21.2101 49.2966 21.1021 49.2752 20.993 49.2752C20.884 49.2752 20.776 49.2967 20.6753 49.3384C20.5745 49.3802 20.483 49.4413 20.4059 49.5185C20.3288 49.5956 20.2676 49.6871 20.2259 49.7879C20.1842 49.8886 20.1627 49.9966 20.1628 50.1056ZM7.6755 50.1056C7.67552 50.2147 7.69701 50.3227 7.73875 50.4234C7.7805 50.5241 7.84167 50.6157 7.91879 50.6928C7.99591 50.7699 8.08746 50.831 8.18821 50.8727C8.28896 50.9145 8.39694 50.9359 8.50599 50.9359C8.61503 50.9359 8.723 50.9144 8.82374 50.8727C8.92448 50.8309 9.01602 50.7697 9.09311 50.6926C9.17021 50.6155 9.23136 50.524 9.27308 50.4232C9.3148 50.3225 9.33626 50.2145 9.33625 50.1054C9.33622 49.8852 9.2487 49.674 9.09296 49.5183C8.93721 49.3626 8.726 49.2751 8.50577 49.2752C8.28554 49.2752 8.07434 49.3627 7.91864 49.5185C7.76294 49.6742 7.67548 49.8854 7.6755 50.1056Z" fill="#C4F440"/>
</svg>
