<svg width="29" height="26" viewBox="0 0 29 26" fill="none" xmlns="http://www.w3.org/2000/svg">
<path d="M11.6667 17.6667L15.6667 19C15.6667 19 25.6667 17 27 17C28.3333 17 28.3333 18.3333 27 19.6667C25.6667 21 21 25 17 25C13 25 10.3333 23 7.66667 23H1" stroke="#C4F440" stroke-width="1.67" stroke-linecap="round" stroke-linejoin="round"/>
<path d="M1 15C2.33333 13.6667 5 11.6667 7.66667 11.6667C10.3333 11.6667 16.6667 14.3333 17.6667 15.6667C18.6667 17 15.6667 19 15.6667 19M9 7.66667V2.33333C9 1.97971 9.14048 1.64057 9.39052 1.39052C9.64057 1.14048 9.97971 1 10.3333 1H26.3333C26.687 1 27.0261 1.14048 27.2761 1.39052C27.5262 1.64057 27.6667 1.97971 27.6667 2.33333V13" stroke="#C4F440" stroke-width="1.67" stroke-linecap="round" stroke-linejoin="round"/>
<path d="M15 1H21.6667V7H15V1Z" stroke="#C4F440" stroke-width="1.67" stroke-linecap="round" stroke-linejoin="round"/>
</svg>
