<svg width="23" height="24" viewBox="0 0 23 24" fill="none" xmlns="http://www.w3.org/2000/svg">
<path d="M10.1908 0.153778C10.6773 -0.0256299 11.2073 -0.0480557 11.7047 0.0865005L11.9156 0.153778L20.5126 3.32391C21.4075 3.65386 22.0204 4.46091 22.0981 5.38564L22.1065 5.58546V12.0618C22.1065 16.0577 19.8782 19.7205 16.3232 21.616L15.9964 21.7834L11.8771 23.8087C11.4161 24.0354 10.8826 24.0606 10.4054 23.8843L10.2294 23.8087L6.11008 21.7834C2.47555 19.9964 0.140335 16.3985 0.0061136 12.4241L0 12.0618V5.58546C0 4.64576 0.55327 3.79806 1.40648 3.40178L1.59382 3.32391L10.1908 0.153778ZM11.0532 2.41533L2.45627 5.58546V12.0618C2.45627 15.1571 4.17544 17.9957 6.92091 19.4749L7.20855 19.623L11.0532 21.5134L14.8979 19.623C17.7134 18.2388 19.5264 15.4573 19.6441 12.3811L19.6502 12.0618V5.58546L11.0532 2.41533ZM15.2693 7.92363C15.749 7.452 16.5266 7.452 17.0061 7.92363C17.4489 8.35897 17.483 9.044 17.1083 9.51775L17.0061 9.63152L10.5776 15.9531C10.0877 16.4348 9.3151 16.4692 8.7848 16.0563L8.66697 15.9531L5.71434 13.0496C5.23473 12.578 5.23473 11.8133 5.71434 11.3417C6.15707 10.9064 6.8537 10.8729 7.33549 11.2412L7.4512 11.3417L9.62221 13.4766L15.2693 7.92363Z" fill="#C4F440"/>
</svg>
