<svg width="16" height="15" viewBox="0 0 16 15" fill="none" xmlns="http://www.w3.org/2000/svg">
<path d="M6.91308 1.13109C7.2552 0.0781634 8.74481 0.0781631 9.08692 1.13109L10.0527 4.10345C10.2057 4.57433 10.6445 4.89314 11.1396 4.89314L14.2649 4.89314C15.3721 4.89314 15.8324 6.30985 14.9367 6.96059L12.4083 8.79761C12.0077 9.08863 11.8401 9.60448 11.9931 10.0754L12.9589 13.0477C13.301 14.1006 12.0959 14.9762 11.2002 14.3255L8.67176 12.4885C8.2712 12.1974 7.7288 12.1974 7.32825 12.4885L4.79981 14.3255C3.90414 14.9762 2.69902 14.1006 3.04113 13.0477L4.00691 10.0754C4.15991 9.60448 3.9923 9.08863 3.59174 8.79761L1.0633 6.96059C0.167631 6.30985 0.627946 4.89314 1.73506 4.89314L4.86038 4.89314C5.3555 4.89314 5.7943 4.57433 5.9473 4.10345L6.91308 1.13109Z" fill="#F4CC40"/>
</svg>
