<svg width="28" height="36" viewBox="0 0 28 36" fill="none" xmlns="http://www.w3.org/2000/svg">
<path id="Vector" d="M14 0C10.2883 0.00437878 6.72991 1.48078 4.10535 4.10534C1.48079 6.7299 0.00439367 10.2883 1.48946e-05 14C-0.0044306 17.0332 0.986353 19.9841 2.82038 22.4C2.82038 22.4 3.20219 22.9027 3.26456 22.9752L14 35.6363L24.7405 22.9689C24.7965 22.9014 25.1796 22.4 25.1796 22.4L25.1809 22.3962C27.014 19.9813 28.0043 17.0318 28 14C27.9956 10.2883 26.5192 6.7299 23.8946 4.10534C21.2701 1.48078 17.7117 0.00437878 14 0ZM14 19.0909C12.9931 19.0909 12.0088 18.7923 11.1716 18.2329C10.3345 17.6735 9.68194 16.8784 9.29662 15.9482C8.9113 15.0179 8.81048 13.9943 9.00692 13.0068C9.20335 12.0193 9.68821 11.1121 10.4002 10.4002C11.1122 9.6882 12.0193 9.20333 13.0068 9.0069C13.9944 8.81047 15.018 8.91128 15.9482 9.2966C16.8784 9.68192 17.6735 10.3344 18.2329 11.1716C18.7923 12.0088 19.0909 12.9931 19.0909 14C19.0892 15.3497 18.5523 16.6436 17.598 17.5979C16.6436 18.5523 15.3497 19.0892 14 19.0909Z" fill="#C4F440"/>
</svg>
