<svg width="30" height="40" viewBox="0 0 30 40" fill="none" xmlns="http://www.w3.org/2000/svg">
<path id="Vector" d="M12.5638 2.62266C11.7838 1.06366 10.1538 -0.19734 8.15175 0.0256597C6.36075 0.22466 3.70175 0.89066 1.88875 3.07466C0.0277511 5.31766 -0.666249 8.81566 0.762751 14.0567C2.28875 19.6477 4.55475 25.1597 7.37175 29.6067C10.1678 34.0217 13.6118 37.5557 17.5628 38.9107C21.0568 40.1087 23.7288 39.6087 25.6778 38.2927C27.5578 37.0237 28.5898 35.1147 29.1238 33.7927C29.7218 32.3127 29.3278 30.7717 28.5478 29.6357L25.6708 25.4517C25.0352 24.5271 24.1202 23.8305 23.0598 23.4639C21.9995 23.0973 20.8496 23.0801 19.7788 23.4147L15.8028 24.6577C15.6772 24.7007 15.5417 24.7059 15.4132 24.6727C15.2847 24.6394 15.1687 24.5692 15.0798 24.4707C13.3098 22.3977 11.3268 19.5067 10.7878 16.5807C10.7707 16.5025 10.7824 16.4208 10.8208 16.3507C11.4058 15.3677 12.4118 14.2537 13.4138 13.2787C15.1108 11.6267 15.7538 9.00066 14.6338 6.76266L12.5638 2.62266Z" fill="#C4F440"/>
</svg>
