<svg width="100" height="55" viewBox="0 0 100 55" fill="none" xmlns="http://www.w3.org/2000/svg">
<g id="Group 86">
<path id="Vector" d="M86.0475 54.1325C84.3529 54.1337 82.696 53.6323 81.2863 52.6917C79.8767 51.7512 78.7777 50.4136 78.1283 48.8484C77.479 47.2831 77.3084 45.5604 77.6383 43.8982C77.9681 42.2359 78.7835 40.7089 79.9814 39.5102C81.1792 38.3114 82.7057 37.4949 84.3677 37.1639C86.0296 36.8328 87.7525 37.0021 89.3182 37.6503C90.884 38.2985 92.2223 39.3965 93.1639 40.8055C94.1055 42.2144 94.6081 43.871 94.6081 45.5656C94.607 47.8363 93.7049 50.0137 92.0999 51.6199C90.4949 53.2261 88.3182 54.1297 86.0475 54.1325ZM86.0475 40.1238C84.971 40.1226 83.9182 40.4407 83.0225 41.0379C82.1268 41.6351 81.4283 42.4846 81.0155 43.4788C80.6027 44.4731 80.494 45.5674 80.7033 46.6234C80.9126 47.6794 81.4303 48.6497 82.1911 49.4113C82.9519 50.173 83.9216 50.6919 84.9773 50.9024C86.0331 51.1129 87.1276 51.0055 88.1223 50.5938C89.117 50.1821 89.9673 49.4846 90.5655 48.5896C91.1637 47.6945 91.483 46.6422 91.483 45.5656C91.4825 44.1236 90.9099 42.7408 89.8908 41.7205C88.8717 40.7003 87.4895 40.1261 86.0475 40.1238ZM40.9028 54.1325C39.2081 54.1341 37.551 53.6331 36.1411 52.6927C34.7312 51.7524 33.6318 50.415 32.9821 48.8498C32.3325 47.2846 32.1616 45.5618 32.4912 43.8994C32.8208 42.2371 33.6361 40.7098 34.8339 39.5109C36.0316 38.312 37.5581 37.4952 39.2201 37.164C40.8821 36.8328 42.6051 37.0019 44.1709 37.6501C45.7368 38.2983 47.0753 39.3963 48.017 40.8053C48.9587 42.2143 49.4613 43.8709 49.4613 45.5656C49.4597 47.8357 48.5577 50.0125 46.9533 51.6185C45.3488 53.2245 43.1729 54.1286 40.9028 54.1325ZM40.9028 40.1238C39.8262 40.1222 38.7733 40.44 37.8773 41.0369C36.9813 41.6338 36.2825 42.4832 35.8693 43.4774C35.4562 44.4716 35.3472 45.566 35.5563 46.6222C35.7653 47.6783 36.2829 48.6487 37.0436 49.4106C37.8043 50.1725 38.7739 50.6916 39.8298 50.9022C40.8856 51.1129 41.9802 51.0056 42.975 50.594C43.9699 50.1823 44.8203 49.4849 45.4186 48.5898C46.0169 47.6947 46.3363 46.6423 46.3363 45.5656C46.3352 44.1242 45.7626 42.7419 44.7441 41.7219C43.7256 40.7018 42.3443 40.1272 40.9028 40.1238Z" fill="#141416"/>
<path id="Vector_2" d="M97.3188 47.1281H93.0458C92.6314 47.1281 92.2339 46.9635 91.9409 46.6704C91.6479 46.3774 91.4832 45.9799 91.4832 45.5655C91.4832 45.1511 91.6479 44.7537 91.9409 44.4607C92.2339 44.1676 92.6314 44.003 93.0458 44.003H96.8771V35.7174C96.8761 34.5972 96.5893 33.4958 96.0437 32.5174L87.5852 17.3525C87.513 17.223 87.4075 17.1152 87.2797 17.0401C87.1519 16.9651 87.0064 16.9255 86.8581 16.9254H75.3308V44.0093H79.0517C79.4661 44.0093 79.8636 44.1739 80.1566 44.4669C80.4496 44.7599 80.6143 45.1574 80.6143 45.5718C80.6143 45.9862 80.4496 46.3836 80.1566 46.6767C79.8636 46.9697 79.4661 47.1343 79.0517 47.1343H73.7683C73.3539 47.1343 72.9564 46.9697 72.6634 46.6767C72.3704 46.3836 72.2057 45.9862 72.2057 45.5718V15.3628C72.2057 14.9484 72.3704 14.551 72.6634 14.2579C72.9564 13.9649 73.3539 13.8003 73.7683 13.8003H86.8581C87.5631 13.7999 88.2553 13.9879 88.8633 14.3446C89.4713 14.7013 89.973 15.214 90.3165 15.8295L98.773 30.9965C99.5769 32.4401 99.9993 34.065 100 35.7174V44.4468C99.999 45.1576 99.7161 45.8389 99.2135 46.3415C98.7109 46.8441 98.0296 47.127 97.3188 47.1281ZM33.9049 47.1281H18.9234C18.509 47.1281 18.1115 46.9635 17.8185 46.6704C17.5255 46.3774 17.3608 45.9799 17.3608 45.5655V33.5486C17.3608 33.1342 17.5255 32.7368 17.8185 32.4437C18.1115 32.1507 18.509 31.9861 18.9234 31.9861C19.3378 31.9861 19.7352 32.1507 20.0283 32.4437C20.3213 32.7368 20.4859 33.1342 20.4859 33.5486V44.003H33.9049C34.3193 44.003 34.7168 44.1676 35.0098 44.4607C35.3028 44.7537 35.4675 45.1511 35.4675 45.5655C35.4675 45.9799 35.3028 46.3774 35.0098 46.6704C34.7168 46.9635 34.3193 47.1281 33.9049 47.1281ZM18.9234 28.0048C18.509 28.0048 18.1115 27.8401 17.8185 27.5471C17.5255 27.2541 17.3608 26.8566 17.3608 26.4422V15.9503C17.3608 15.5359 17.5255 15.1385 17.8185 14.8455C18.1115 14.5524 18.509 14.3878 18.9234 14.3878C19.3378 14.3878 19.7352 14.5524 20.0283 14.8455C20.3213 15.1385 20.4859 15.5359 20.4859 15.9503V26.4485C20.4843 26.8618 20.3189 27.2576 20.026 27.5493C19.7332 27.841 19.3367 28.0048 18.9234 28.0048Z" fill="#141416"/>
<path id="Vector_3" d="M73.7684 47.1281H47.8991C47.4847 47.1281 47.0873 46.9634 46.7943 46.6704C46.5012 46.3774 46.3366 45.9799 46.3366 45.5655C46.3366 45.1511 46.5012 44.7537 46.7943 44.4607C47.0873 44.1676 47.4847 44.003 47.8991 44.003H72.2059V3.12507H20.4861V9.56062C20.4861 9.97503 20.3214 10.3725 20.0284 10.6655C19.7354 10.9585 19.3379 11.1231 18.9235 11.1231C18.5091 11.1231 18.1117 10.9585 17.8187 10.6655C17.5256 10.3725 17.361 9.97503 17.361 9.56062V2.83756C17.3621 2.08497 17.6617 1.36355 18.1941 0.831584C18.7264 0.299617 19.448 0.000550944 20.2006 0H72.4934C73.2456 0.00110217 73.9667 0.300412 74.4986 0.832319C75.0305 1.36423 75.3299 2.08533 75.331 2.83756V45.5655C75.331 45.9799 75.1663 46.3774 74.8733 46.6704C74.5803 46.9634 74.1828 47.1281 73.7684 47.1281ZM25.1007 35.1112H5.26908C4.85467 35.1112 4.45723 34.9465 4.1642 34.6535C3.87117 34.3605 3.70654 33.963 3.70654 33.5486C3.70654 33.1342 3.87117 32.7368 4.1642 32.4437C4.45723 32.1507 4.85467 31.9861 5.26908 31.9861H25.1007C25.5152 31.9861 25.9126 32.1507 26.2056 32.4437C26.4987 32.7368 26.6633 33.1342 26.6633 33.5486C26.6633 33.963 26.4987 34.3605 26.2056 34.6535C25.9126 34.9465 25.5152 35.1112 25.1007 35.1112Z" fill="#141416"/>
<path id="Vector_4" d="M40.9029 28.0047H13.2294C12.815 28.0047 12.4176 27.8401 12.1246 27.5471C11.8315 27.254 11.6669 26.8566 11.6669 26.4422C11.6669 26.0278 11.8315 25.6303 12.1246 25.3373C12.4176 25.0443 12.815 24.8797 13.2294 24.8797H40.9029C41.3174 24.8797 41.7148 25.0443 42.0078 25.3373C42.3009 25.6303 42.4655 26.0278 42.4655 26.4422C42.4655 26.8566 42.3009 27.254 42.0078 27.5471C41.7148 27.8401 41.3174 28.0047 40.9029 28.0047ZM12.369 19.7545H1.56253C1.14812 19.7545 0.750687 19.5899 0.457655 19.2969C0.164624 19.0039 0 18.6064 0 18.192C0 17.7776 0.164624 17.3802 0.457655 17.0871C0.750687 16.7941 1.14812 16.6295 1.56253 16.6295H12.369C12.7834 16.6295 13.1809 16.7941 13.4739 17.0871C13.7669 17.3802 13.9315 17.7776 13.9315 18.192C13.9315 18.6064 13.7669 19.0039 13.4739 19.2969C13.1809 19.5899 12.7834 19.7545 12.369 19.7545ZM29.6965 11.1231H10.6211C10.2066 11.1231 9.80921 10.9585 9.51618 10.6655C9.22315 10.3724 9.05852 9.97499 9.05852 9.56058C9.05852 9.14617 9.22315 8.74873 9.51618 8.4557C9.80921 8.16267 10.2066 7.99805 10.6211 7.99805H29.6965C30.1109 7.99805 30.5083 8.16267 30.8013 8.4557C31.0944 8.74873 31.259 9.14617 31.259 9.56058C31.259 9.97499 31.0944 10.3724 30.8013 10.6655C30.5083 10.9585 30.1109 11.1231 29.6965 11.1231Z" fill="#141416"/>
</g>
</svg>
