<svg width="110" height="100" viewBox="0 0 110 100" fill="none" xmlns="http://www.w3.org/2000/svg">
<g id="Frame" clip-path="url(#clip0_146_715)">
<g id="Group">
<path id="Vector" d="M45.4384 41.6584C42.2899 34.1188 39.0281 26.3165 31.5746 26.4766C16.5357 26.7965 6.88993 47.5051 6.4847 48.3872L8.71884 49.4064C8.81329 49.2018 18.13 29.2132 31.6261 28.9267C37.4274 28.7907 40.2286 35.5014 43.1762 42.6022C46.7701 51.1955 50.8382 60.9367 61.4636 56.9476C63.6126 56.1444 65.5341 54.8309 67.0628 53.1203C72.7126 56.8692 80.4686 60.299 91.0742 62.6481L86.6761 70.6662C91.7248 67.4886 99.465 64.955 105.573 63.7121C100.135 60.6706 93.5388 55.8914 89.7004 51.3253L91.4278 60.2215C81.2924 57.9492 73.9243 54.6991 68.5608 51.1617C70.1864 48.5134 71.2007 45.5359 71.5298 42.446C72.7055 33.0017 69.0672 21.4455 63.7359 17.7458C62.849 17.0486 61.7791 16.6232 60.6557 16.5209C59.5322 16.4186 58.4031 16.6438 57.4049 17.1693C53.1924 19.3548 50.9389 25.2274 51.8897 31.751C52.3987 35.2411 54.6514 43.9548 65.0949 51.6875C63.8542 53.001 62.3277 54.0113 60.6337 54.6401C52.7728 57.5999 49.653 51.7017 45.4384 41.6584ZM54.2978 31.4173C53.5392 25.9955 55.2751 21.0321 58.5096 19.3499C59.1146 19.0356 59.7992 18.9078 60.4768 18.9826C61.1544 19.0573 61.7946 19.3313 62.3166 19.7699C66.4631 22.6572 70.233 32.8422 69.0728 42.1485C68.7866 44.8432 67.9232 47.4447 66.5413 49.7758C56.8583 42.5846 54.7574 34.6283 54.313 31.4113L54.2978 31.4173Z" fill="white"/>
</g>
</g>
<defs>
<clipPath id="clip0_146_715">
<rect width="70.3174" height="89.7688" fill="white" transform="translate(25.9893 99.0835) rotate(-111.691)"/>
</clipPath>
</defs>
</svg>
