<svg version="1.2" xmlns="http://www.w3.org/2000/svg" viewBox="0 0 29 58" width="29" height="58">
	<title>Frame (2)-svg</title>
	<defs>
		<clipPath clipPathUnits="userSpaceOnUse" id="cp1">
			<path d="m-21 15.29l35.14-20.29 25.9 44.86-35.14 20.29z"/>
		</clipPath>
	</defs>
	<style>
		.s0 { fill: #ffffff } 
	</style>
	<g id="Clip-Path: Frame" clip-path="url(#cp1)">
		<g id="Frame">
			<g id="Group">
				<path id="Vector" fill-rule="evenodd" class="s0" d="m7.3 31.4c0.5 0.9 1.2 1.7 2 2.3 3.6-6.6 8.4-8.7 10.3-9.2 3.7-1.1 7.2-0.3 8.8 1.9 0.4 0.5 0.6 1.1 0.6 1.8 0.1 0.6-0.1 1.3-0.4 1.9-1.7 3.3-8 6.4-13.5 6.5-1.8 0-3.5-0.3-5.2-1-1.6 3.4-2.8 7.8-3.3 13.8l5-1.7c-2.3 2.6-4.5 6.7-5.8 10.1-1.2-3.4-3.3-7.6-5.5-10.2l4.9 1.8c0.5-6.2 1.8-11 3.5-14.5-1.1-0.7-2-1.7-2.7-2.9-3.1-5.7 2.1-8.8 6.7-11.6 3.8-2.3 7.4-4.4 6.8-7.7-1.3-7.7-13.5-11.4-13.6-11.4l0.4-1.4c0.6 0.2 13.2 4 14.6 12.5 0.7 4.3-3.4 6.8-7.5 9.2-5.4 3.2-8.5 5.5-6.1 9.8zm12.7-5.6c-1.8 0.5-6.2 2.4-9.5 8.5 1.5 0.6 3 0.9 4.6 0.8 5.4-0.1 10.9-3.1 12.2-5.7q0.3-0.5 0.3-1.1 0-0.6-0.4-1.1c-1.2-1.7-4.2-2.3-7.2-1.4z"/>
			</g>
		</g>
	</g>
</svg>