<svg width="100" height="92" viewBox="0 0 100 92" fill="none" xmlns="http://www.w3.org/2000/svg">
<g id="Group 85">
<path id="Vector" d="M99.6525 41.8445C98.6589 38.6431 95.628 36.5058 92.277 36.64L91.5624 36.6694C89.4658 36.7549 87.4936 37.6191 86.0167 39.0959L74.9675 50.0294C74.7023 49.6237 74.3997 49.2438 74.0636 48.8947C72.611 47.3853 70.5761 46.5205 68.4813 46.5205H52.896C49.9554 46.5205 47.0879 46.1389 44.3718 45.3877C37.2979 43.4295 30.548 44.8431 24.8515 49.4752C22.4487 51.43 20.7213 53.5633 19.6618 55.0708C18.4618 54.2364 17.0343 53.7989 15.5535 53.8239C13.6754 53.8562 11.9238 54.618 10.6218 55.9711L0.54805 66.4283C-0.196012 67.2003 -0.1807 68.4278 0.583362 69.1814L8.68461 77.1722C9.45429 77.9309 10.6951 77.923 11.4549 77.1526C12.2137 76.3823 12.2057 75.1428 11.4355 74.3829L4.71242 67.752L13.4429 58.6884C13.7246 58.3942 14.0621 58.1589 14.4357 57.9963C14.8093 57.8338 15.2115 57.7472 15.6188 57.7416C16.4551 57.7264 17.2307 58.0377 17.8258 58.6145L33.4026 73.7305C33.9965 74.3072 34.3304 75.08 34.3419 75.9076C34.3488 76.3148 34.2746 76.7192 34.1239 77.0974C33.9731 77.4756 33.7487 77.8201 33.4636 78.1109L24.8846 86.9134L22.6768 84.8108C21.8932 84.0643 20.6537 84.0948 19.9071 84.8786C19.1618 85.6622 19.1924 86.9019 19.9762 87.647L23.5851 91.0851C23.9491 91.4322 24.4329 91.6257 24.9358 91.6253C25.446 91.6253 25.9551 91.4268 26.339 91.0339L36.2694 80.8448C37.5786 79.502 38.2847 77.7289 38.2591 75.8539C38.248 75.01 38.0846 74.1751 37.7769 73.3892L41.2749 72.9822C42.904 72.793 44.5426 72.6978 46.1827 72.6972H69.8967C70.2599 72.6972 70.6274 72.6819 70.9892 72.6514L73.2616 72.4622C75.5677 72.2697 77.7824 71.4729 79.6825 70.152C80.6143 69.5036 81.4583 68.7373 82.1935 67.8723L98.1731 49.0723C99.8809 47.0636 100.433 44.3622 99.6525 41.8445ZM95.1884 46.5352L79.2083 65.3351C78.6919 65.9423 78.0992 66.4802 77.4449 66.9355C76.1108 67.8629 74.556 68.4226 72.9369 68.5583L70.6635 68.7475C70.4085 68.769 70.1527 68.7797 69.8967 68.7798H46.1827C44.398 68.7798 42.5944 68.8842 40.8227 69.09L35.1586 69.7492L22.628 57.6666C23.4813 56.402 25.0493 54.3634 27.3235 52.5147C32.061 48.6627 37.4449 47.5348 43.3269 49.1627C46.383 50.0086 49.6025 50.437 52.896 50.437H68.4813C69.5172 50.437 70.5235 50.8655 71.2425 51.6114C71.7523 52.1406 72.0982 52.8059 72.2386 53.5272C72.2362 53.7044 72.2582 53.881 72.3039 54.0522C72.3558 54.9708 72.0805 55.9069 71.4689 56.6681L71.4086 56.7437C71.0505 57.1922 70.5958 57.554 70.0784 57.8022C69.561 58.0505 68.9942 58.1787 68.4203 58.1775H54.8522C53.77 58.1775 52.8936 59.0541 52.8936 60.1355C52.8936 61.2177 53.77 62.0948 54.8522 62.0948H68.4203C70.7828 62.0948 72.9856 61.0376 74.4646 59.1937L74.525 59.1187C75.6578 57.7075 76.2194 55.9997 76.2249 54.2956L88.7786 41.8731C89.5624 41.0877 90.6136 40.627 91.7224 40.5828L92.4377 40.5542C94.0172 40.487 95.4436 41.4972 95.9111 43.0053C96.2925 44.2347 96.0222 45.5542 95.1884 46.535V46.5352Z" fill="#141416"/>
<path id="Vector_2" d="M15.5746 61.8725C12.6496 61.8725 10.2705 64.2521 10.2705 67.1765C10.2705 70.1018 12.6497 72.4817 15.5746 72.4817C18.4994 72.4817 20.8791 70.102 20.8791 67.1765C20.8791 64.2523 18.4996 61.8725 15.5746 61.8725ZM15.5746 68.5639C14.8097 68.5639 14.1871 67.942 14.1871 67.1764C14.1871 66.4123 14.8097 65.7904 15.5746 65.7904C16.3386 65.7904 16.9613 66.4123 16.9613 67.1764C16.9613 67.942 16.3386 68.5639 15.5746 68.5639ZM46.5292 58.4662L46.4284 58.49C45.3755 58.7371 44.7213 59.7918 44.9697 60.8446C45.1808 61.7468 45.9859 62.3559 46.8745 62.3559C47.0222 62.3559 47.1736 62.3382 47.3238 62.3028L47.425 62.2796C48.478 62.0325 49.1309 60.9778 48.8838 59.925C48.6366 58.872 47.5825 58.2203 46.5291 58.4662H46.5292ZM15.3224 79.1962L15.2211 79.2199C14.1683 79.4678 13.5152 80.5212 13.7624 81.574C13.9743 82.4768 14.7786 83.0853 15.6672 83.0853C15.8163 83.0853 15.9664 83.0688 16.1177 83.0334L16.2185 83.0103C17.2713 82.7631 17.925 81.7084 17.6772 80.6556C17.43 79.602 16.3752 78.9495 15.3224 79.1962ZM57.3261 41.4606C68.7569 41.4606 78.0562 32.1612 78.0562 20.7306C78.0562 9.29999 68.7567 0 57.3261 0C52.6374 0 48.2147 1.52703 44.5361 4.41531C42.4322 6.06717 40.6659 8.10845 39.3335 10.4278C37.542 13.5497 36.596 17.113 36.596 20.7306C36.596 32.1612 45.8953 41.4606 57.3261 41.4606ZM42.7316 12.3773C43.3771 11.2529 44.15 10.2065 45.0352 9.25906C45.6286 8.62304 46.2704 8.03389 46.9547 7.49687C49.938 5.15562 53.5245 3.91781 57.3264 3.91781C66.5964 3.91781 74.1391 11.4594 74.1391 20.7306C74.1391 30.0012 66.5964 37.5433 57.3264 37.5433C48.0558 37.5433 40.513 30.0011 40.513 20.7306C40.513 17.7955 41.2802 14.9072 42.7317 12.3773H42.7316Z" fill="#141416"/>
<path id="Vector_3" d="M59.0637 27.4348C58.2739 27.9042 57.248 28.0708 56.5522 28.0708C55.2312 28.0708 54.0734 26.5145 54.0734 24.7408C54.0734 23.6592 53.1964 22.7822 52.1148 22.7822C51.0327 22.7822 50.1562 23.6592 50.1562 24.7408C50.1562 28.133 52.223 30.987 55.0048 31.7727C55.0683 32.7973 55.9167 33.6098 56.9573 33.6098C58.0261 33.6098 58.8934 32.7536 58.9142 31.6891C61.7431 30.9547 64.1845 28.8484 64.1845 25.1673C64.1845 20.7539 59.6776 18.3461 57.3633 18.3461C57.3339 18.3461 54.4586 18.0903 54.4586 16.2514C54.4586 13.4274 57.3341 13.348 57.3633 13.348C57.9077 13.348 58.57 13.6714 59.0919 14.1933C59.3426 14.4449 59.3695 14.471 59.3695 15.5269C59.3695 16.6085 60.2472 17.4813 61.3281 17.4813C62.4097 17.4813 63.2875 16.6011 63.2875 15.5189C63.2875 14.2672 63.2875 12.8486 61.8622 11.4228C61.0053 10.5672 59.9786 9.95814 58.9106 9.65408C58.8508 8.62564 58.0011 7.80908 56.9575 7.80908C55.8758 7.80908 54.9987 8.68674 54.9987 9.7683V9.89642C52.8589 10.6917 50.5414 12.5924 50.5414 16.2514C50.5414 20.7392 55.2062 22.2566 57.3492 22.2627C57.9377 22.3103 60.2667 23.3419 60.2667 25.1667C60.2667 26.2409 59.8962 26.9398 59.0636 27.4348H59.0637Z" fill="#141416"/>
</g>
</svg>
