<svg width="100" height="87" viewBox="0 0 100 87" fill="none" xmlns="http://www.w3.org/2000/svg">
<g id="Group 84">
<path id="Vector" d="M18.3332 60H8.33317C7.89114 60 7.46722 60.1756 7.15466 60.4882C6.8421 60.8007 6.6665 61.2246 6.6665 61.6667C6.6665 62.1087 6.8421 62.5326 7.15466 62.8452C7.46722 63.1577 7.89114 63.3333 8.33317 63.3333H18.3332C18.7752 63.3333 19.1991 63.1577 19.5117 62.8452C19.8242 62.5326 19.9998 62.1087 19.9998 61.6667C19.9998 61.2246 19.8242 60.8007 19.5117 60.4882C19.1991 60.1756 18.7752 60 18.3332 60ZM14.9998 66.6667H8.33317C7.89114 66.6667 7.46722 66.8423 7.15466 67.1548C6.8421 67.4674 6.6665 67.8913 6.6665 68.3333C6.6665 68.7754 6.8421 69.1993 7.15466 69.5118C7.46722 69.8244 7.89114 70 8.33317 70H14.9998C15.4419 70 15.8658 69.8244 16.1783 69.5118C16.4909 69.1993 16.6665 68.7754 16.6665 68.3333C16.6665 67.8913 16.4909 67.4674 16.1783 67.1548C15.8658 66.8423 15.4419 66.6667 14.9998 66.6667Z" fill="#141416"/>
<path id="Vector_2" d="M91.6667 6.66667H78.3333V5C78.332 3.67432 77.8048 2.40332 76.8674 1.46593C75.93 0.528533 74.659 0.00132369 73.3333 0H56.6667C55.341 0.00132369 54.07 0.528533 53.1326 1.46593C52.1952 2.40332 51.668 3.67432 51.6667 5V6.66667H38.3333C36.124 6.66931 34.0059 7.54814 32.4437 9.11037C30.8815 10.6726 30.0026 12.7907 30 15V30H6.66667C4.8991 30.0018 3.20443 30.7047 1.95457 31.9546C0.70471 33.2044 0.00176492 34.8991 0 36.6667V70C0.00176492 71.7676 0.70471 73.4622 1.95457 74.7121C3.20443 75.962 4.8991 76.6649 6.66667 76.6667H30C29.45 81.9167 32.8567 86.6117 38.3333 86.6667H91.6667C93.876 86.664 95.9941 85.7852 97.5563 84.223C99.1185 82.6607 99.9974 80.5427 100 78.3333V15C99.9974 12.7907 99.1185 10.6726 97.5563 9.11037C95.9941 7.54814 93.876 6.66931 91.6667 6.66667ZM55 5C55 4.55797 55.1756 4.13405 55.4882 3.82149C55.8007 3.50893 56.2246 3.33333 56.6667 3.33333H73.3333C73.7754 3.33333 74.1993 3.50893 74.5118 3.82149C74.8244 4.13405 75 4.55797 75 5V13.3333C75 13.7754 74.8244 14.1993 74.5118 14.5118C74.1993 14.8244 73.7754 15 73.3333 15H56.6667C56.2246 15 55.8007 14.8244 55.4882 14.5118C55.1756 14.1993 55 13.7754 55 13.3333V5ZM52.9667 16.6667C53.4314 17.1891 54.0012 17.6076 54.6388 17.8948C55.2764 18.182 55.9674 18.3315 56.6667 18.3333H73.3333C74.0326 18.3315 74.7236 18.182 75.3612 17.8948C75.9988 17.6076 76.5686 17.1891 77.0333 16.6667H88.3333V76.6667H41.6667V76.43C43.0941 76.0626 44.3594 75.2321 45.2642 74.0685C46.169 72.9049 46.6623 71.474 46.6667 70V36.6667C46.6623 35.1927 46.169 33.7618 45.2642 32.5982C44.3594 31.4346 43.0941 30.6041 41.6667 30.2367V16.6667H52.9667ZM33.3333 15C33.3347 13.6743 33.8619 12.4033 34.7993 11.4659C35.7367 10.5285 37.0077 10.0013 38.3333 10H51.6667V13.3333H41.6667C40.783 13.3347 39.9359 13.6863 39.3111 14.3111C38.6863 14.9359 38.3347 15.783 38.3333 16.6667V30H33.3333V15ZM16.6667 33.3333H30V38.3333C30 38.7754 29.8244 39.1993 29.5118 39.5118C29.1993 39.8244 28.7754 40 28.3333 40H18.3333C17.8913 40 17.4674 39.8244 17.1548 39.5118C16.8423 39.1993 16.6667 38.7754 16.6667 38.3333V33.3333ZM6.66667 73.3333C5.78302 73.332 4.93594 72.9804 4.3111 72.3556C3.68627 71.7307 3.33466 70.8836 3.33333 70V36.6667C3.33466 35.783 3.68627 34.9359 4.3111 34.3111C4.93594 33.6863 5.78302 33.3347 6.66667 33.3333H13.3333V38.3333C13.3347 39.659 13.8619 40.93 14.7993 41.8674C15.7367 42.8048 17.0077 43.332 18.3333 43.3333H28.3333C29.659 43.332 30.93 42.8048 31.8674 41.8674C32.8048 40.93 33.332 39.659 33.3333 38.3333V33.3333H40C40.8836 33.3347 41.7307 33.6863 42.3556 34.3111C42.9804 34.9359 43.332 35.783 43.3333 36.6667V70C43.332 70.8836 42.9804 71.7307 42.3556 72.3556C41.7307 72.9804 40.8836 73.332 40 73.3333H6.66667ZM96.6667 78.3333C96.6653 79.659 96.1381 80.93 95.2007 81.8674C94.2633 82.8048 92.9923 83.332 91.6667 83.3333H38.3333C37.0077 83.332 35.7367 82.8048 34.7993 81.8674C33.8619 80.93 33.3347 79.659 33.3333 78.3333V76.6667H38.3333C38.3347 77.5503 38.6863 78.3974 39.3111 79.0222C39.9359 79.6471 40.783 79.9987 41.6667 80H88.3333C89.217 79.9987 90.0641 79.6471 90.6889 79.0222C91.3137 78.3974 91.6653 77.5503 91.6667 76.6667V16.6667C91.6653 15.783 91.3137 14.9359 90.6889 14.3111C90.0641 13.6863 89.217 13.3347 88.3333 13.3333H78.3333V10H91.6667C92.9923 10.0013 94.2633 10.5285 95.2007 11.4659C96.1381 12.4033 96.6653 13.6743 96.6667 15V78.3333Z" fill="#141416"/>
<path id="Vector_3" d="M74.6547 36.1785C74.9672 36.491 75.3911 36.6665 75.833 36.6665C76.275 36.6665 76.6988 36.491 77.0113 36.1785L84.5113 28.6785C84.8149 28.3642 84.9829 27.9432 84.9791 27.5062C84.9753 27.0692 84.8001 26.6512 84.491 26.3422C84.182 26.0331 83.764 25.8579 83.327 25.8541C82.89 25.8503 82.469 26.0183 82.1547 26.3219L75.833 32.6435L73.678 30.4885C73.3637 30.1849 72.9427 30.0169 72.5057 30.0207C72.0687 30.0245 71.6507 30.1998 71.3416 30.5088C71.0326 30.8178 70.8573 31.2359 70.8536 31.6729C70.8498 32.1099 71.0177 32.5309 71.3213 32.8452L74.6547 36.1785ZM52.4997 35.0002H65.833C66.275 35.0002 66.699 34.8246 67.0115 34.512C67.3241 34.1995 67.4997 33.7756 67.4997 33.3335C67.4997 32.8915 67.3241 32.4676 67.0115 32.155C66.699 31.8425 66.275 31.6669 65.833 31.6669H52.4997C52.0576 31.6669 51.6337 31.8425 51.3212 32.155C51.0086 32.4676 50.833 32.8915 50.833 33.3335C50.833 33.7756 51.0086 34.1995 51.3212 34.512C51.6337 34.8246 52.0576 35.0002 52.4997 35.0002ZM74.6547 51.1785C74.9672 51.491 75.3911 51.6665 75.833 51.6665C76.275 51.6665 76.6988 51.491 77.0113 51.1785L84.5113 43.6785C84.8149 43.3642 84.9829 42.9432 84.9791 42.5062C84.9753 42.0692 84.8001 41.6512 84.491 41.3422C84.182 41.0331 83.764 40.8579 83.327 40.8541C82.89 40.8503 82.469 41.0183 82.1547 41.3219L75.833 47.6435L73.678 45.4885C73.3637 45.1849 72.9427 45.0169 72.5057 45.0207C72.0687 45.0245 71.6507 45.1998 71.3416 45.5088C71.0326 45.8178 70.8573 46.2359 70.8536 46.6729C70.8498 47.1098 71.0177 47.5309 71.3213 47.8452L74.6547 51.1785ZM52.4997 50.0002H65.833C66.275 50.0002 66.699 49.8246 67.0115 49.512C67.3241 49.1995 67.4997 48.7756 67.4997 48.3335C67.4997 47.8915 67.3241 47.4676 67.0115 47.155C66.699 46.8425 66.275 46.6669 65.833 46.6669H52.4997C52.0576 46.6669 51.6337 46.8425 51.3212 47.155C51.0086 47.4676 50.833 47.8915 50.833 48.3335C50.833 48.7756 51.0086 49.1995 51.3212 49.512C51.6337 49.8246 52.0576 50.0002 52.4997 50.0002ZM74.6547 66.1785C74.9672 66.491 75.3911 66.6665 75.833 66.6665C76.275 66.6665 76.6988 66.491 77.0113 66.1785L84.5113 58.6785C84.8149 58.3642 84.9829 57.9432 84.9791 57.5062C84.9753 57.0692 84.8001 56.6512 84.491 56.3422C84.182 56.0331 83.764 55.8579 83.327 55.8541C82.89 55.8503 82.469 56.0183 82.1547 56.3219L75.833 62.6435L73.678 60.4885C73.3637 60.1849 72.9427 60.0169 72.5057 60.0207C72.0687 60.0245 71.6507 60.1998 71.3416 60.5088C71.0326 60.8178 70.8573 61.2359 70.8536 61.6729C70.8498 62.1099 71.0177 62.5309 71.3213 62.8452L74.6547 66.1785ZM52.4997 65.0002H65.833C66.275 65.0002 66.699 64.8246 67.0115 64.512C67.3241 64.1995 67.4997 63.7756 67.4997 63.3335C67.4997 62.8915 67.3241 62.4676 67.0115 62.155C66.699 61.8425 66.275 61.6669 65.833 61.6669H52.4997C52.0576 61.6669 51.6337 61.8425 51.3212 62.155C51.0086 62.4676 50.833 62.8915 50.833 63.3335C50.833 63.7756 51.0086 64.1995 51.3212 64.512C51.6337 64.8246 52.0576 65.0002 52.4997 65.0002Z" fill="#141416"/>
</g>
</svg>
