<svg version="1.2" xmlns="http://www.w3.org/2000/svg" viewBox="0 0 100 55" width="100" height="55">
	<title>step-before-img-svg</title>
	<defs>
		<clipPath clipPathUnits="userSpaceOnUse" id="cp1">
			<path d="m19.99 83.08l-25.99-65.33 83.41-33.18 25.99 65.33z"/>
		</clipPath>
	</defs>
	<style>
		.s0 { fill: #ffffff } 
	</style>
	<g id="Clip-Path: Frame" clip-path="url(#cp1)">
		<g id="Frame">
			<g id="Group">
				<path id="Vector" fill-rule="evenodd" class="s0" d="m54.6 38.6c1.7-0.6 3.3-1.6 4.5-2.9-10.4-7.7-12.7-16.5-13.2-19.9-1-6.6 1.3-12.4 5.5-14.6 1-0.6 2.1-0.8 3.3-0.7 1.1 0.1 2.1 0.5 3 1.2 5.4 3.7 9 15.3 7.8 24.7-0.3 3.1-1.3 6.1-2.9 8.8 5.3 3.5 12.7 6.7 22.8 9l-1.7-8.9c3.8 4.6 10.4 9.4 15.9 12.4-6.1 1.3-13.9 3.8-18.9 7l4.4-8.1c-10.6-2.3-18.4-5.7-24-9.5-1.6 1.7-3.5 3-5.6 3.8-10.7 4-14.7-5.7-18.3-14.3-3-7.1-5.8-13.8-11.6-13.7-13.5 0.3-22.8 20.3-22.9 20.5l-2.2-1c0.4-0.9 10-21.6 25.1-21.9 7.4-0.2 10.7 7.6 13.8 15.2 4.3 10 7.4 15.9 15.2 12.9zm-6.3-23.2c0.5 3.2 2.6 11.2 12.2 18.4 1.4-2.4 2.3-5 2.6-7.7 1.1-9.3-2.6-19.4-6.8-22.3-0.5-0.5-1.1-0.7-1.8-0.8-0.7-0.1-1.4 0-2 0.3-3.2 1.7-5 6.7-4.2 12.1z"/>
			</g>
		</g>
	</g>
</svg>